<svg width="41" height="40" viewBox="0 0 41 40" fill="none" xmlns="http://www.w3.org/2000/svg">
<path d="M0.556641 8C0.556641 3.58172 4.13836 0 8.55664 0H32.5566C36.9749 0 40.5566 3.58172 40.5566 8V32C40.5566 36.4183 36.9749 40 32.5566 40H8.55664C4.13836 40 0.556641 36.4183 0.556641 32V8Z" fill="url(#paint0_linear)"/>
<path d="M35.5566 30.6044V29.3269C25.3781 28.2143 17.466 19.9725 17.3836 10H16.1061C16.1885 20.6731 24.6775 29.4918 35.5566 30.6044Z" fill="white"/>
<path d="M17.3836 10H16.1061C16.0649 12.967 14.8286 15.7692 12.6033 17.9121C10.6665 19.7665 8.23521 20.9203 5.55664 21.3324V22.6099C8.56488 22.239 11.3259 20.9203 13.4687 18.8599C15.9413 16.4698 17.3424 13.3379 17.3836 10Z" fill="white"/>
<path d="M20.9687 10H19.6913C19.6088 14.1621 17.9193 18.0357 14.8286 21.044C12.3149 23.4753 9.05939 25.0824 5.55664 25.6593V26.978C9.38906 26.4011 12.933 24.6703 15.694 21.9918C19.0731 18.7363 20.8863 14.4918 20.9687 10Z" fill="white"/>
<path d="M25.2132 21.7445C28.0566 24.2994 31.6418 25.9478 35.5566 26.4835V25.1648C31.9715 24.6291 28.6748 23.1044 26.0786 20.7555C22.9055 17.8709 21.1748 14.0797 21.1336 10H19.8561C19.8973 14.4505 21.7929 18.6126 25.2132 21.7445Z" fill="white"/>
<path d="M35.5566 22.3214V21.044C32.8781 20.7143 30.4055 19.5604 28.4687 17.706C26.3259 15.6044 25.1308 12.8846 25.0896 10H23.8121C23.8533 13.2555 25.2132 16.3049 27.6446 18.6126C29.7462 20.7143 32.5484 21.9918 35.5566 22.3214Z" fill="white"/>
<path d="M24.8011 10H23.5237C23.4825 15.1511 21.5044 19.9725 17.8369 23.6813C14.5402 26.978 10.2544 29.0385 5.55664 29.5742V30.8516C10.5841 30.3159 15.1995 28.1319 18.7435 24.5879C22.6171 20.6731 24.7599 15.4808 24.8011 10Z" fill="white"/>
<defs>
<linearGradient id="paint0_linear" x1="40.5566" y1="1.19209e-06" x2="0.556639" y2="40" gradientUnits="userSpaceOnUse">
<stop stop-color="#D62429"/>
<stop offset="1" stop-color="#F9721E"/>
</linearGradient>
</defs>
</svg>
