<svg width="40" height="40" viewBox="0 0 40 40" fill="none" xmlns="http://www.w3.org/2000/svg">
<rect width="40" height="40" rx="8" fill="black"/>
<path d="M36 20.5C36 15.2222 32.4015 11 27.9903 11H18.5877V18.8019H12.0097V22.1522H18.5877V26.6039H12.0097C9.14631 26.6039 6.82467 23.8502 6.82467 20.5C6.82467 17.1039 9.14631 14.3961 12.0097 14.3961H15.2987V11H12.0097C7.59855 11 4 15.2222 4 20.5C4 25.686 7.59855 30 12.0097 30H27.9903C32.4015 29.9541 36 25.686 36 20.5ZM27.9903 26.6039H21.4123V22.1522H27.9903V18.8019H21.4123V14.3502H27.9903C30.8537 14.3502 33.1753 17.1039 33.1753 20.4541C33.1366 23.8502 30.8537 26.6039 27.9903 26.6039Z" fill="white"/>
</svg>
