<svg width="17" height="17" viewBox="0 0 17 17" fill="none" xmlns="http://www.w3.org/2000/svg">
<path d="M8.79834 0.5C4.38034 0.5 0.79834 4.082 0.79834 8.5C0.79834 12.918 4.38034 16.5 8.79834 16.5C13.2163 16.5 16.7983 12.918 16.7983 8.5C16.7983 4.082 13.2163 0.5 8.79834 0.5ZM11.2983 3.5C12.1263 3.5 12.7983 4.395 12.7983 5.5C12.7983 6.605 12.1263 7.5 11.2983 7.5C10.4703 7.5 9.79834 6.605 9.79834 5.5C9.79834 4.395 10.4703 3.5 11.2983 3.5ZM6.29834 3.5C7.12634 3.5 7.79834 4.395 7.79834 5.5C7.79834 6.605 7.12634 7.5 6.29834 7.5C5.47034 7.5 4.79834 6.605 4.79834 5.5C4.79834 4.395 5.47034 3.5 6.29834 3.5ZM13.5983 11.101C12.4523 12.625 10.7033 13.5 8.79834 13.5C6.89334 13.5 5.14434 12.625 3.99834 11.101C3.66634 10.66 3.75534 10.033 4.19734 9.701C4.63834 9.37 5.26634 9.458 5.59734 9.9C6.36134 10.917 7.52834 11.5 8.79834 11.5C10.0683 11.5 11.2353 10.917 11.9983 9.9C12.3303 9.459 12.9563 9.37 13.3983 9.701C13.8403 10.033 13.9293 10.66 13.5983 11.101Z" fill="#21944E"/>
</svg>
