<svg xmlns="http://www.w3.org/2000/svg" viewBox="0 0 24 24"><rect x="0.04" y="0.04" width="24" height="24" style="fill:none"/><path d="M23.71,11.64,12.35.29a1,1,0,0,0-1.41,1.42l.17.17L2.9,16.39l-1.19-1.2A1,1,0,1,0,.29,16.61l5,5h0l2.13,2.13A1,1,0,0,0,8.1,24a1,1,0,0,0,.71-1.71L7.61,21.1l1.81-1,1.16,1.16h0A4.52,4.52,0,0,0,18.29,18a4.45,4.45,0,0,0-.78-2.53l4.61-2.61.17.17a1,1,0,0,0,1.42,0A1,1,0,0,0,23.71,11.64ZM15.19,6,5.78,15.38l6.8-12ZM16.28,18A2.51,2.51,0,0,1,12,19.81l-.76-.76,4.51-2.55A2.49,2.49,0,0,1,16.28,18Z" style="fill:#ef463c"/></svg>