<svg xmlns="http://www.w3.org/2000/svg" viewBox="0 0 24 24"><g id="Boundary"><rect x="0.045" y="0.045" width="24" height="24" style="fill:none"/></g><g id="Design"><path d="M19.828,11.742h.013l-2.685-6.3-.141-.281-.027-.013a.335.335,0,0,0-.264-.143H7.288a.333.333,0,0,0-.256.133L7,5.155l-.02.039v0L4.169,11.742h.015a1.566,1.566,0,0,0,0,1.381L9.989,23.7a.5.5,0,0,0,.457.3h.562L11,14.049a1,1,0,0,1,1-1h0a1,1,0,0,1,1,1L13.008,24h.556a.5.5,0,0,0,.457-.3l5.818-10.585A1.565,1.565,0,0,0,19.828,11.742Z" style="fill:#ef463c"/><path d="M8,0h8a1,1,0,0,1,1,1V2a1,1,0,0,1-1,1H8A1,1,0,0,1,7,2V1A1,1,0,0,1,8,0Z" style="fill:#ef463c"/></g></svg>