<svg xmlns="http://www.w3.org/2000/svg" viewBox="0 0 16 16"><rect width="16" height="16" style="fill:none"/><rect x="1" y="-1" width="16" height="16" style="fill:none"/><path d="M8.36,3.25,9.86,7l3,2.24a.36.36,0,0,1,0,.58L9.86,12l-1.5,3.72a.39.39,0,0,1-.72,0L6.14,12l-3-2.24a.36.36,0,0,1,0-.58L6.14,7l1.5-3.72A.39.39,0,0,1,8.36,3.25Z" style="fill:#ef463c"/><path d="M2.18,1.1l.59,1.43,1.17.86a.13.13,0,0,1,0,.22l-1.17.86L2.18,5.9a.15.15,0,0,1-.28,0L1.31,4.47.13,3.61a.14.14,0,0,1,0-.22l1.18-.86L1.9,1.1A.15.15,0,0,1,2.18,1.1Z" style="fill:#ef463c"/><path d="M13.68.13l.75,2,1.5,1.2a.22.22,0,0,1,0,.32l-1.5,1.2-.75,2a.19.19,0,0,1-.36,0l-.75-2-1.5-1.2a.22.22,0,0,1,0-.32l1.5-1.2.75-2A.19.19,0,0,1,13.68.13Z" style="fill:#ef463c"/></svg>