<svg xmlns="http://www.w3.org/2000/svg" viewBox="0 0 24 24"><g id="Boundary"><rect x="0.045" y="0.045" width="24" height="24" style="fill:none"/></g><g id="Design"><path d="M24,2V22a1,1,0,0,1-1,1H1a1,1,0,0,1-1-1V2A1,1,0,0,1,1,1H23A1,1,0,0,1,24,2ZM17,4a1,1,0,1,0,1-1A1,1,0,0,0,17,4ZM14,4a1,1,0,1,0,1-1A1,1,0,0,0,14,4Zm8,3H2.025V21H22Zm0-3a1,1,0,1,0-1,1A1,1,0,0,0,22,4ZM9,18.908,16.663,14.6a.7.7,0,0,0,0-1.192L9,9.092a.669.669,0,0,0-1,.6v8.624A.669.669,0,0,0,9,18.908Z" style="fill:#ef463c"/></g></svg>