<svg xmlns="http://www.w3.org/2000/svg" viewBox="0 0 24 24"><g id="Boundary"><rect x="0.045" y="0.045" width="24" height="24" style="fill:none"/></g><g id="Design"><path d="M20,1H4A1,1,0,0,0,3,2V22a1,1,0,0,0,1,1H20a1,1,0,0,0,1-1V2A1,1,0,0,0,20,1ZM11,20.67a.33.33,0,0,1-.33.33H5.33A.33.33,0,0,1,5,20.67V19.33A.33.33,0,0,1,5.33,19h5.34a.33.33,0,0,1,.33.33Zm-4-4a.33.33,0,0,1-.33.33H5.33A.33.33,0,0,1,5,16.67V15.33A.33.33,0,0,1,5.33,15H6.67a.33.33,0,0,1,.33.33Zm0-4a.33.33,0,0,1-.33.33H5.33A.33.33,0,0,1,5,12.67V11.33A.33.33,0,0,1,5.33,11H6.67a.33.33,0,0,1,.33.33Zm12-5a.33.33,0,0,1-.33.33H5.33A.33.33,0,0,1,5,7.67V3.33A.33.33,0,0,1,5.33,3H18.67a.33.33,0,0,1,.33.33Zm-8,9a.33.33,0,0,1-.33.33H9.33A.33.33,0,0,1,9,16.67V15.33A.33.33,0,0,1,9.33,15h1.34a.33.33,0,0,1,.33.33Zm0-4a.33.33,0,0,1-.33.33H9.33A.33.33,0,0,1,9,12.67V11.33A.33.33,0,0,1,9.33,11h1.34a.33.33,0,0,1,.33.33Zm8,8a.33.33,0,0,1-.33.33H17.33a.33.33,0,0,1-.33-.33V19.33a.33.33,0,0,1,.33-.33h1.34a.33.33,0,0,1,.33.33Zm0-4a.33.33,0,0,1-.33.33H17.33a.33.33,0,0,1-.33-.33V15.33a.33.33,0,0,1,.33-.33h1.34a.33.33,0,0,1,.33.33Zm0-4a.33.33,0,0,1-.33.33H17.33a.33.33,0,0,1-.33-.33V11.33a.33.33,0,0,1,.33-.33h1.34a.33.33,0,0,1,.33.33Zm-4,8a.33.33,0,0,1-.33.33H13.33a.33.33,0,0,1-.33-.33V19.33a.33.33,0,0,1,.33-.33h1.34a.33.33,0,0,1,.33.33Zm0-4a.33.33,0,0,1-.33.33H13.33a.33.33,0,0,1-.33-.33V15.33a.33.33,0,0,1,.33-.33h1.34a.33.33,0,0,1,.33.33Zm0-4a.33.33,0,0,1-.33.33H13.33a.33.33,0,0,1-.33-.33V11.33a.33.33,0,0,1,.33-.33h1.34a.33.33,0,0,1,.33.33Z" style="fill:#ef463c"/></g></svg>