<svg xmlns="http://www.w3.org/2000/svg" viewBox="0 0 24 24"><g id="Boundary"><rect x="0.045" y="0.045" width="24" height="24" style="fill:none"/></g><g id="Design"><path d="M9.238,13.514a20.438,20.438,0,0,1-1.8-5.635A1.848,1.848,0,0,1,9.108,6.107l.714-.175c2.146-.563,3.105-2.2,1.007-5.131A2.5,2.5,0,0,0,8.4.06,5.314,5.314,0,0,0,4.99,2.506c-1.559,3.041-1.306,7.621.965,12.337s5.287,7.973,8.788,8.965a5.439,5.439,0,0,0,4.155-.55s1.4-.855,1.037-2.145c-.952-3.4-3.169-3.718-4.813-2.773l-.622.366a1.3,1.3,0,0,1-1.932-.178A21.53,21.53,0,0,1,9.238,13.514Z" style="fill:#ef463c"/></g></svg>