<svg xmlns="http://www.w3.org/2000/svg" viewBox="0 0 24 24"><g id="Boundary"><rect x="0.01" y="0.067" width="24" height="24" style="fill:none"/><rect x="0.01" y="0.045" width="24" height="24" style="fill:none"/><rect x="0.045" y="0.045" width="24" height="24" style="fill:none"/></g><g id="Design"><path d="M23.981,9.556,22.917,2.519a1.683,1.683,0,0,0-1.408-1.412L14.449.025A1.684,1.684,0,0,0,13.005.5L.462,13.032a1.575,1.575,0,0,0,0,2.229l8.271,8.272a1.577,1.577,0,0,0,2.229,0L23.507,11A1.68,1.68,0,0,0,23.981,9.556ZM5.714,15.569a1,1,0,0,1-.707-1.707L11.52,7.351a1,1,0,1,1,1.414,1.414L6.421,15.276A.993.993,0,0,1,5.714,15.569Zm8.012-.168-3.59,3.59a1,1,0,0,1-1.414-1.414l3.59-3.59A1,1,0,1,1,13.726,15.4Zm6.232-8a2.379,2.379,0,1,1,0-3.365A2.379,2.379,0,0,1,19.958,7.405Z" style="fill:#ef463c"/></g></svg>