<svg preserveAspectRatio="none" width="595" height="222" viewBox="0 0 595 222" fill="none" xmlns="http://www.w3.org/2000/svg">
<path d="M15.5998 222C13.534 221.994 11.4899 221.626 9.58555 220.917C7.68116 220.208 5.9541 219.172 4.50398 217.869C3.05387 216.565 1.90938 215.021 1.13652 213.324C0.36367 211.627 -0.0222602 209.812 0.000991466 207.982L2.53123 30.3867C2.56508 27.2457 3.81037 24.2095 6.0605 21.7816C8.31063 19.3537 11.4303 17.6802 14.902 17.0387C33.7745 13.4808 53.0448 10.4138 72.1847 7.92445C98.2892 4.51093 140.899 0 209.261 0C227.475 0 246.726 0.329223 266.459 0.981892C317.39 2.65688 349.67 5.68342 380.894 8.60599C417.785 12.0715 452.628 15.3233 512.975 15.4215H515.662C536.002 15.4215 556.563 15.0576 576.786 14.3472C576.994 14.3472 577.209 14.3472 577.438 14.3472C581.55 14.3576 585.493 15.8013 588.413 18.3662C591.334 20.931 592.997 24.4109 593.043 28.0532L594.999 201.623C595.017 203.449 594.626 205.259 593.851 206.951C593.076 208.643 591.931 210.182 590.482 211.481C589.034 212.78 587.309 213.812 585.409 214.519C583.508 215.226 581.469 215.594 579.407 215.6C578.951 215.6 578.488 215.6 578.031 215.548C544.531 212.961 510.295 211.65 476.3 211.65C469.439 211.65 462.488 211.702 455.634 211.811C417.941 212.389 397.217 214.307 377.177 216.149C357.137 217.992 338.258 219.736 304.348 219.898H299.607C260.375 219.898 236.142 217.587 212.711 215.375C191.908 213.4 172.279 211.534 144.003 211.534C137.932 211.534 131.541 211.627 125.007 211.8C89.2559 212.754 53.6365 216.086 18.4496 221.769C17.5097 221.923 16.5557 222 15.5998 222Z" fill="#21944E"/>
</svg>
