<svg preserveAspectRatio="none" width="591" height="239" viewBox="0 0 591 239" fill="none" xmlns="http://www.w3.org/2000/svg">
<path d="M576.077 239C575.538 239.001 574.998 238.98 574.462 238.936C481.539 231.145 388.162 227.226 294.718 227.197C240.943 227.197 186.456 228.525 132.875 231.142C95.5002 232.974 57.6651 235.47 20.4198 238.566C19.7654 238.617 19.1029 238.643 18.4485 238.643C15.9927 238.637 13.5629 238.245 11.3007 237.49C9.03856 236.735 6.98932 235.631 5.27248 234.244C3.55563 232.857 2.20555 231.213 1.30094 229.409C0.396334 227.605 -0.0446937 225.677 0.00357424 223.737L4.44715 38.8109C4.53571 34.316 6.44192 29.9614 9.88708 26.3837C13.3322 22.8061 18.1356 20.1931 23.5949 18.9267C48.8694 13.0118 74.6088 8.41646 100.647 5.17053C127.922 1.7324 155.499 0.0034974 183.119 0C224.598 0 264.098 3.63214 314.116 8.22817C353.906 11.8858 399.005 16.035 455.269 19.214C493.241 21.3652 532.256 22.8589 571.141 23.6504C576.466 23.7441 581.531 25.4866 585.246 28.5026C588.96 31.5186 591.026 35.5667 591 39.7748V227.21C590.995 230.336 589.422 233.333 586.624 235.543C583.827 237.753 580.034 238.997 576.077 239Z" fill="#21944E"/>
</svg>
