<svg width="129" height="129" viewBox="0 0 129 129" fill="none" xmlns="http://www.w3.org/2000/svg">
<mask id="mask0_853_19022" style="mask-type:alpha" maskUnits="userSpaceOnUse" x="9" y="8" width="112" height="112">
<path fill-rule="evenodd" clip-rule="evenodd" d="M88.1091 16.4406C84.6455 13.2168 80.2375 10.9373 75.4458 9.76801C45.0519 2.34836 18.5447 27.8414 10.5966 57.4229C1.70868 90.5043 35.2743 117.676 63.4035 119.711C91.4828 121.74 118.458 99.3009 120.311 68.4222C121.696 45.2938 107.219 24.3684 88.1091 16.4406Z" fill="#B5DFEB"/>
</mask>
<g mask="url(#mask0_853_19022)">
<path fill-rule="evenodd" clip-rule="evenodd" d="M88.1091 16.4406C84.6455 13.2168 80.2375 10.9373 75.4458 9.76801C45.0519 2.34836 18.5447 27.8414 10.5966 57.4229C1.70868 90.5043 35.2743 117.676 63.4035 119.711C91.4828 121.74 118.458 99.3009 120.311 68.4222C121.696 45.2938 107.219 24.3684 88.1091 16.4406Z" fill="#B5DFEB"/>
<path d="M45.4607 77.1239C49.0625 78.9968 57.9829 75.251 57.9829 75.251C57.9829 75.251 58.319 98.6985 53.8769 106.466L78.9812 90.4264C77.7806 82.4785 75.2353 73.0299 75.2353 73.0299C75.2353 73.0299 79.8456 70.3046 80.8901 68.7198C83.2344 65.083 84.8642 61.0328 85.6925 56.7859C87.1091 49.5824 87.4333 40.4099 83.6034 34.6951C80.1577 29.5326 74.467 24.7062 72.9782 24.202C65.8707 21.8968 55.9659 23.5657 55.9659 23.5657L52.04 24.9343C49.7186 25.685 47.6105 26.9802 45.8916 28.7116C44.1727 30.443 42.8929 32.5604 42.1591 34.8872C39.6379 42.8951 46.1451 55.2972 36.0001 60.964L45.4607 77.1239Z" fill="#AD4C25"/>
<path d="M104.361 172.269C104.361 172.269 90.2662 106.332 76.8076 80.6997L52.5797 97.8441L46.6608 120.031L37.5123 171.656L104.361 172.269Z" fill="#F6A9C4"/>
<path d="M42.1593 69.6444L44.0322 72.898C44.0322 72.898 48.6185 72.4658 49.807 66.4148C47.5408 68.0665 44.9234 69.1718 42.1593 69.6444Z" fill="#4A210D"/>
<path d="M45.1963 56.2819C45.3284 58.1548 46.3969 59.6556 47.5014 59.6195C48.606 59.5835 49.4824 58.0468 49.3503 56.1739C49.2183 54.3009 48.1497 52.8122 47.0452 52.8362C45.9407 52.8602 45.0762 54.409 45.1963 56.2819Z" fill="#4A210D"/>
<path d="M52.5921 51.3354C52.7132 51.336 52.8333 51.3119 52.9448 51.2644C53.0563 51.2169 53.1569 51.1471 53.2404 51.0593C53.4097 50.8884 53.5048 50.6575 53.5048 50.417C53.5048 50.1764 53.4097 49.9455 53.2404 49.7746C52.0611 48.7656 50.6843 48.0137 49.1979 47.5672C47.7115 47.1207 46.1482 46.9892 44.6082 47.1814C44.4897 47.1919 44.3745 47.2258 44.2693 47.2811C44.164 47.3364 44.0707 47.412 43.9948 47.5035C43.9189 47.595 43.8619 47.7007 43.827 47.8144C43.7922 47.9281 43.7802 48.0475 43.7918 48.1659C43.819 48.4036 43.9361 48.6219 44.1192 48.7759C44.3023 48.93 44.5374 49.0081 44.7762 48.9943C46.0559 48.8337 47.3549 48.9362 48.5936 49.2954C49.8322 49.6547 50.9845 50.263 51.9798 51.0833C52.1457 51.24 52.3638 51.3299 52.5921 51.3354Z" fill="#4A210D"/>
<path d="M67.431 53.0279C69.8322 53.4121 71.6331 52.4036 71.8252 48.5017C72.0173 44.5998 69.5921 44.0715 67.299 44.6238C65.0059 45.1761 64.2855 46.8329 64.4656 49.15C64.6457 51.4672 65.0779 52.6437 67.431 53.0279Z" fill="#AD4C25"/>
<path d="M52.352 25.3425C52.8922 22.401 62.4489 20.5401 70.4328 23.0974C74.9623 24.6511 78.9586 27.4569 81.9585 31.1893C90.3626 41.3343 88.3936 54.4928 87.7813 69.212C87.1492 85.4667 88.1103 101.744 90.6507 117.812C88.793 120.075 86.4446 121.885 83.7834 123.106C77.9245 125.808 60.9722 123.106 59.1593 122.662C59.4955 100.187 67.2152 82.3824 67.6715 71.1569C68.4158 53.1481 73.4943 43.8195 65.6905 35.5595C59.7356 29.2924 51.8237 28.0918 52.352 25.3425Z" fill="#4A210D"/>
<path fill-rule="evenodd" clip-rule="evenodd" d="M54.9398 24.0799C54.5917 23.7409 54.3985 23.5619 54.3985 23.5619C52.9949 23.9939 51.646 24.5693 50.3761 25.2775C49.0969 25.9289 47.883 26.6873 46.7491 27.5437C49.7202 44.1923 61.9145 54.1351 68.9495 58.5962C68.4362 62.4655 67.8814 66.8546 67.6715 71.9343C67.4891 76.4203 66.1468 81.9571 64.5793 88.4228C62.2243 98.1362 59.3611 109.946 59.1593 123.44C60.9722 123.884 77.9245 126.585 83.7834 123.884C86.4446 122.663 88.793 120.852 90.6507 118.589C88.1103 102.522 87.1492 86.2441 87.7813 69.9893C87.9106 66.8811 88.1758 63.8263 88.4345 60.8455C89.4011 49.7103 90.2781 39.6069 83.6486 31.6042C80.6488 27.8718 77.2974 25.5888 72.768 24.035C66.9243 22.1633 58.9872 22.5726 54.9398 24.0799ZM69.3484 42.6712C68.7273 40.4231 67.5908 38.3483 65.6905 36.3369C65.3358 35.9636 64.9742 35.6083 64.6078 35.2695C66.2614 37.5376 67.9033 40.0357 69.3484 42.6712Z" fill="#4A210D"/>
<mask id="mask1_853_19022" style="mask-type:alpha" maskUnits="userSpaceOnUse" x="49" y="21" width="43" height="104">
<path fill-rule="evenodd" clip-rule="evenodd" d="M53.1752 25.0693C54.1424 22.2585 63.4167 20.5546 71.1974 23.0467C75.7269 24.6005 79.7232 27.4062 82.7231 31.1387C90.0882 40.0295 89.4865 51.2347 88.813 63.7765C88.718 65.5458 88.6216 67.3416 88.5459 69.1613C87.9138 85.4161 88.8749 101.694 91.4153 117.761C89.5576 120.024 87.2092 121.835 84.5479 123.056C78.6891 125.757 61.7368 123.056 59.9239 122.612C60.1257 109.118 62.9889 97.3082 65.3439 87.5947C66.9114 81.1291 68.2537 75.5923 68.436 71.1063C68.6602 65.6831 69.2774 61.0471 69.8175 56.9903C69.8867 56.4701 69.9547 55.9594 70.0205 55.4578C63.4019 51.2843 52.3204 42.237 49.5876 27.2488C50.6474 26.4654 51.7821 25.7715 52.9777 25.1756C53.0433 25.1398 53.1091 25.1044 53.1752 25.0693Z" fill="#4A210D"/>
</mask>
<g mask="url(#mask1_853_19022)">
<path d="M49.5875 24.4366C51.5966 31.7956 55.149 38.6425 60.0086 44.5225C68.1846 54.4153 84.0204 51.726 88.8227 53.683" stroke="#12080B" stroke-width="3.37365" stroke-linecap="round" stroke-linejoin="round"/>
<path d="M53.6335 22.5514C55.5071 29.9698 59.088 36.8479 64.0906 42.6372C71.5223 51.2815 84.6207 51.9298 88.9188 53.6827" stroke="#12080B" stroke-width="3.37365" stroke-linecap="round" stroke-linejoin="round"/>
<path d="M57.3315 21.8553C59.3923 29.2759 63.3237 36.0431 68.7491 41.509C74.4238 47.1875 81.5109 51.2492 89.2792 53.2747" stroke="#12080B" stroke-width="3.37365" stroke-linecap="round" stroke-linejoin="round"/>
<path d="M71.6783 19.9462C76.0493 21.7474 79.9237 24.5719 82.9758 28.1822C91.3799 38.3152 89.411 51.4736 88.7987 66.1928C88.166 82.4476 89.127 98.7253 91.6681 114.793" stroke="#12080B" stroke-width="2.40118" stroke-linecap="round" stroke-linejoin="round"/>
<path d="M67.0923 20.1506C72.0744 22.1575 76.4656 25.3962 79.8545 29.5633C88.0305 39.8883 86.4217 52.6746 85.6774 67.5739C84.9152 84.6275 85.4691 101.715 87.3342 118.683" stroke="#12080B" stroke-width="2.40118" stroke-linecap="round" stroke-linejoin="round"/>
<path d="M62.3377 20.4626C67.5676 22.7231 72.1549 26.2461 75.6883 30.7157C83.36 40.6565 82.6637 52.3263 82.0034 68.5342C81.5471 79.7597 80.9468 96.9401 80.6227 119.415" stroke="#12080B" stroke-width="2.40118" stroke-linecap="round" stroke-linejoin="round"/>
<path d="M57.8237 21.099C63.0498 23.3603 67.633 26.8833 71.1623 31.352C78.834 41.3049 78.1497 52.9626 77.4894 69.1706C77.0211 80.3961 76.4328 97.5885 76.0967 120.064" stroke="#12080B" stroke-width="2.40118" stroke-linecap="round" stroke-linejoin="round"/>
<path d="M53.3574 22.2997C58.5873 24.5602 63.943 28.0434 67.4764 32.5129C75.1481 42.4538 73.6953 54.1633 73.023 70.3712C72.5668 81.5967 71.9785 98.7772 71.6423 121.264" stroke="#12080B" stroke-width="2.40118" stroke-linecap="round" stroke-linejoin="round"/>
<path d="M71.4383 55.748L67.7044 121.672" stroke="#12080B" stroke-width="2.42519" stroke-linecap="round" stroke-linejoin="round"/>
<path d="M70.188 52.1152L59.9951 118.712" stroke="#12080B" stroke-width="2.40118" stroke-linecap="round" stroke-linejoin="round"/>
</g>
<path d="M68.7762 56.3176L58.8953 121.726" stroke="#12080B" stroke-width="2.40118" stroke-linecap="round" stroke-linejoin="round"/>
<path d="M46.749 28.4737C50.1477 35.3168 52.6459 43.9976 58.5759 48.8158C68.4955 56.9326 81.5552 56.0625 86.9603 54.9657" stroke="#12080B" stroke-width="3.37365" stroke-linecap="round" stroke-linejoin="round"/>
<path d="M50.5334 26.295C53.9321 33.1381 56.4303 41.8189 62.3603 46.6372C72.2799 54.754 83.9204 54.3449 89.3255 53.2481" stroke="#12080B" stroke-width="3.37365" stroke-linecap="round" stroke-linejoin="round"/>
<path d="M54.3183 24.7293C57.717 31.5724 60.2152 40.2532 66.1452 45.0714C76.0648 53.1882 84.8669 54.9577 90.2719 53.8609" stroke="#12080B" stroke-width="3.37365" stroke-linecap="round" stroke-linejoin="round"/>
<path d="M64.8791 58.8014C67.2802 59.1856 69.0811 58.1771 69.2732 54.2751C69.4653 50.3732 67.0281 49.869 64.747 50.3972C62.4659 50.9255 61.7335 52.6063 61.9136 54.9235C62.0937 57.2406 62.5259 58.4172 64.8791 58.8014Z" fill="#AD4C25"/>
</g>
</svg>
