<svg width="130" height="129" viewBox="0 0 130 129" fill="none" xmlns="http://www.w3.org/2000/svg">
<mask id="mask0_853_19117" style="mask-type:alpha" maskUnits="userSpaceOnUse" x="9" y="8" width="112" height="112">
<path fill-rule="evenodd" clip-rule="evenodd" d="M41.5976 16.4406C45.0612 13.2168 49.4692 10.9373 54.2609 9.76801C84.6549 2.34836 111.162 27.8414 119.11 57.4229C127.998 90.5043 94.4324 117.676 66.3033 119.711C38.2239 121.74 11.2486 99.3009 9.39562 68.4222C8.01053 45.2938 22.4874 24.3684 41.5976 16.4406Z" fill="#B5DFEB"/>
</mask>
<g mask="url(#mask0_853_19117)">
<path fill-rule="evenodd" clip-rule="evenodd" d="M41.5976 16.4406C45.0612 13.2168 49.4692 10.9373 54.2609 9.76801C84.6549 2.34836 111.162 27.8414 119.11 57.4229C127.998 90.5043 94.4324 117.676 66.3033 119.711C38.2239 121.74 11.2486 99.3009 9.39562 68.4222C8.01053 45.2938 22.4874 24.3684 41.5976 16.4406Z" fill="#B5DFEB"/>
<path d="M82.9417 54.9073C82.2357 59.4853 80.2346 60.4786 77.9103 59.7842C75.586 59.0899 75.3068 57.6734 75.4338 54.9281C75.5607 52.1829 76.5009 50.2937 78.8802 49.8878C81.2595 49.482 83.6369 50.3293 82.9417 54.9082" fill="#FFCAAF"/>
<path d="M76.1071 81.0002C76.1071 81.0002 75.9927 106.936 63.4462 106.905C50.8996 106.874 55.2673 82.0735 55.2673 82.0735L76.1071 81.0002Z" fill="white"/>
<path d="M76.1062 81.0002C76.1062 81.0002 94.591 90.4725 100.644 94.9393C106.696 99.4061 112.816 139.818 112.816 139.818H20.8156C20.8156 139.818 28.8963 100.354 33.0677 95.5233C37.2391 90.6924 55.3313 82.0909 55.3313 82.0909L58.8317 104.837L76.1062 81.0002Z" fill="#4141A2"/>
<path d="M80.4507 63.5468C78.0436 65.1979 73.6596 69.251 72.8717 70.7857C71.6181 75.2942 76.1074 81.0001 76.1074 81.0001L69.9223 84.0304C65.0936 86.3973 59.2487 85.6167 55.2676 82.0734C57.7099 71.9441 54.2031 72.6237 54.2031 72.6237C52.9181 72.3348 51.7089 71.7928 50.6513 71.0316C48.2964 69.5543 44.007 55.1286 44.007 55.1286L46.869 47.6151L47.53 35.726L60.489 25.9287C60.489 25.9287 79.1305 29.6855 83.1578 38.5156C87.1851 47.3457 80.4507 63.5485 80.4507 63.5485" fill="#FFCAAF"/>
<path d="M61.8906 61.3702C60.0495 64.3384 56.5968 66.0126 53.03 65.6667V62.4235C56.7979 62.911 61.8906 61.3746 61.8906 61.3746" fill="#471F05"/>
<path d="M51.0621 50.2746C50.8703 51.705 49.9958 52.7948 49.1079 52.7252C48.2353 52.6479 47.6598 51.4391 47.8516 50.0104C48.0434 48.5818 48.9179 47.4903 49.8076 47.5598C50.6812 47.638 51.2485 48.8459 51.0621 50.2746Z" fill="#471F05"/>
<path d="M63.3937 51.4491C63.2028 52.8804 62.3284 53.9692 61.4395 53.9006C60.5669 53.8224 59.9923 52.6136 60.1841 51.1858C60.376 49.758 61.2495 48.6656 62.141 48.7343C63.0128 48.8125 63.5819 50.0213 63.3937 51.4491Z" fill="#471F05"/>
<path d="M60.3013 44.7265C62.1606 44.5122 64.0459 44.7377 65.7947 45.3835C66.433 45.5993 67.0576 45.8512 67.6652 46.1378C67.5112 46.0648 67.7894 46.1987 67.8336 46.2247L68.047 46.3342L68.2424 46.4411C69.0619 46.9095 69.885 45.7207 69.0619 45.2488C66.3525 43.6501 63.1658 42.9742 60.0113 43.3292C59.0675 43.4665 59.3638 44.8682 60.3049 44.73" fill="#471F05"/>
<path d="M53.9537 42.56C51.9909 42.1672 49.9604 42.2204 48.0226 42.7155C47.6277 42.8101 47.3808 43.1888 47.4634 43.5733C47.5588 43.955 47.9527 44.1935 48.3504 44.1103C50.0277 43.6658 51.7887 43.601 53.4962 43.9209C53.8851 44.0315 54.2958 43.8292 54.431 43.4603C54.5536 43.0847 54.341 42.6838 53.9537 42.56Z" fill="#471F05"/>
<path d="M57.2142 56.2983C56.6388 56.2757 56.1759 56.2384 55.6662 56.1784C55.2217 56.1334 54.7805 56.062 54.3451 55.9646C54.255 55.942 54.1749 55.9221 54.0902 55.8969L53.956 55.8569L53.9884 55.8664L53.8083 55.7795C53.6922 55.7213 53.839 55.7891 53.848 55.8073C53.793 55.7039 53.9056 55.8873 53.9191 55.9168C53.9573 56.0216 53.9712 56.1331 53.9596 56.2436L53.92 56.2862L53.9281 56.3261L54.0641 56.0915C54.2118 55.8569 54.3721 55.6309 54.5261 55.3963C55.0664 54.5942 55.5707 53.7764 56.0264 52.93C56.8012 51.4707 57.4485 49.9516 57.9617 48.3885C58.2544 47.5108 56.8072 47.1954 56.5208 48.0661C55.6998 50.4878 54.5468 52.7926 53.0924 54.9192C52.7952 55.3537 52.3431 55.8751 52.5521 56.4339C52.8564 57.2638 54.1298 57.4029 54.8935 57.5115C55.6838 57.6214 56.4795 57.6918 57.2773 57.7227C58.231 57.76 58.1634 56.3322 57.2178 56.2923" fill="#471F05"/>
<path d="M43.4443 45.6166C43.1219 45.6338 42.8208 45.7772 42.6104 46.0135C42.4 46.2498 42.2985 46.5587 42.3294 46.8688L42.6356 52.4618C42.6445 53.0172 43.0722 53.4831 43.6424 53.5585L44.5709 53.6454L46.8682 47.6145L46.9582 45.939L43.5361 45.6218L43.4371 45.6174" fill="#FAFAFB"/>
<path fill-rule="evenodd" clip-rule="evenodd" d="M46.8728 47.6134L46.9628 45.9379V45.9336L52.4175 46.4394C52.7555 46.4896 53.0552 46.6766 53.2412 46.9535C53.4273 47.2303 53.4822 47.5706 53.3919 47.8889L52.1113 53.3359C52.0115 53.8412 51.5633 54.2131 51.0306 54.2327H50.9316L44.5755 53.6444L46.8728 47.6134ZM49.108 52.7283H49.1872C50.0482 52.7283 50.8758 51.6646 51.0622 50.2742C51.2486 48.8455 50.6813 47.6376 49.8077 47.5594H49.7285C48.8657 47.5594 48.0381 48.6231 47.8517 50.0135C47.6599 51.4422 48.2353 52.651 49.108 52.7283Z" fill="#EFC5A5"/>
<path d="M49.7284 47.5564C48.8657 47.5564 48.038 48.6244 47.8516 50.0105C47.6598 51.4392 48.2353 52.648 49.1079 52.7253H49.1871C50.0481 52.7253 50.8757 51.6582 51.0621 50.2712C51.2521 48.8425 50.6812 47.6346 49.8076 47.5564H49.7284Z" fill="#917969"/>
<path fill-rule="evenodd" clip-rule="evenodd" d="M50.8508 55.0184L51.0228 55.0262C51.9368 55.0047 52.7154 54.3793 52.9031 53.5159L54.1855 48.0706C54.3239 47.4987 54.2001 46.8971 53.846 46.4195C53.5301 45.9901 53.0379 45.7127 52.4952 45.6582L43.6202 44.837C43.0761 44.7902 42.5378 44.9738 42.1451 45.3402C41.7083 45.7503 41.4782 46.3235 41.5147 46.9105L41.8218 52.5035C41.8464 53.4504 42.5901 54.2352 43.5653 54.3432L50.8508 55.0184ZM51.3142 53.165C51.2949 53.318 51.1663 53.4365 51.0071 53.4483L43.7279 52.7739C43.5633 52.7314 43.4511 52.5845 43.4577 52.4202L43.1515 46.8272C43.141 46.6986 43.1886 46.5718 43.2821 46.4796L43.4694 46.4075L52.3453 47.2287C52.4193 47.2411 52.4845 47.2827 52.5254 47.3434C52.6028 47.453 52.6287 47.589 52.5966 47.718L51.3142 53.165Z" fill="#130800"/>
<path fill-rule="evenodd" clip-rule="evenodd" d="M57.6345 47.6386C57.7897 47.2688 58.1587 47.0243 58.572 47.0172L58.5765 47.0164H58.6665L68.7573 47.9488C69.0659 47.9897 69.3414 48.1566 69.5137 48.407C69.6861 48.6574 69.7385 48.9672 69.6578 49.2576L68.2458 54.9392C68.143 55.3942 67.7304 55.7219 67.2479 55.7317H67.1579L58.8782 54.967C58.3613 54.9062 57.966 54.4931 57.9443 53.9911L57.6291 49.3531C57.7456 49.0362 57.8572 48.7176 57.9641 48.3972C58.0846 48.0999 57.9387 47.764 57.6345 47.6386ZM61.4438 53.9068H61.5231V53.9059C62.3849 53.9059 63.2134 52.8422 63.3981 51.4518C63.5863 50.024 63.0171 48.8152 62.1454 48.737H62.0643C61.2016 48.737 60.374 49.8015 60.1885 51.192C59.9966 52.6198 60.5712 53.8286 61.4438 53.9068Z" fill="#EFC5A5"/>
<path d="M62.06 48.7312C61.1973 48.7312 60.3697 49.7992 60.1841 51.1862C59.9923 52.614 60.5669 53.8228 61.4395 53.901H61.5188C62.3806 53.901 63.2091 52.8347 63.3937 51.4469C63.5855 50.0191 63.0128 48.8103 62.141 48.7321H62.06" fill="#917969"/>
<path d="M57.6349 47.6359C57.5639 47.7949 57.533 47.968 57.5449 48.1408L57.6268 49.3513C57.7427 49.0338 57.8543 48.7152 57.9618 48.3954C58.0823 48.0981 57.9364 47.7622 57.6322 47.6367" fill="#917969"/>
<path fill-rule="evenodd" clip-rule="evenodd" d="M67.0814 56.5149L67.2571 56.5236C68.1156 56.5143 68.8542 55.9352 69.0393 55.1262L70.4531 49.4445C70.5861 48.9135 70.4745 48.3529 70.1469 47.9073C69.841 47.4878 69.3611 47.2176 68.8321 47.1668L58.7405 46.2335C58.211 46.1866 57.6868 46.3665 57.3068 46.7254C56.9 47.1086 56.6885 47.6451 56.7286 48.1923L57.1267 54.0417C57.1711 54.9303 57.8796 55.6553 58.7963 55.7501L67.0814 56.5149ZM58.4497 47.8569L58.573 47.803L58.5893 47.8038L68.68 48.7363L68.8205 48.8232C68.874 48.8967 68.8912 48.9893 68.8673 49.0761L67.4543 54.7577C67.4307 54.8581 67.3441 54.9333 67.2382 54.9454L58.9531 54.1807C58.8365 54.1548 58.7546 54.0537 58.7568 53.9382L58.3596 48.0889C58.3522 48.0024 58.3852 47.9173 58.4497 47.8569Z" fill="#130800"/>
<path d="M57.3268 50.1835H57.2547L53.3562 49.8533C52.9066 49.8152 52.5742 49.4325 52.6137 48.9986C52.6533 48.5648 53.0498 48.244 53.4994 48.2821L57.397 48.6124C57.8346 48.6467 58.1657 49.0087 58.1468 49.4319C58.1279 49.8551 57.7658 50.1882 57.3268 50.1862V50.1835Z" fill="#130800"/>
<path d="M83.9727 57.7305C83.605 57.7302 83.2829 57.493 83.1856 57.1508C82.6335 55.2173 80.5551 50.1118 77.5949 49.7338L68.6632 48.7318C68.4472 48.7087 68.2497 48.6034 68.1145 48.4393C67.9793 48.2752 67.9174 48.0658 67.9428 47.8576C67.9987 47.4267 68.4011 47.1179 68.8487 47.1623L77.7948 48.1652C82.4453 48.7665 84.6661 56.4052 84.7589 56.7294C84.8779 57.1495 84.6221 57.5833 84.187 57.6992L83.9727 57.7305Z" fill="#130800"/>
<path d="M80.4575 63.639C80.0324 59.4843 79.8715 55.3055 79.9763 51.1293C78.7093 49.9358 76.9659 51.1507 75.5595 52.3681C74.3972 53.3634 73.4672 54.3612 73.1952 54.0389C72.5908 53.3228 73.7764 38.1539 73.7764 38.1539C68.2786 41.4407 62.6041 40.8011 57.4294 40.1638C52.901 39.6053 48.7561 39.0491 45.4365 41.1185C46.1153 19.875 75.3037 11.4301 84.1398 31.072C93.1757 34.7264 92.239 53.9863 80.4622 63.6462" fill="#24262C"/>
</g>
</svg>
