<svg width="137" height="136" viewBox="0 0 137 136" fill="none" xmlns="http://www.w3.org/2000/svg">
<mask id="mask0_853_19058" style="mask-type:alpha" maskUnits="userSpaceOnUse" x="12" y="12" width="112" height="112">
<path fill-rule="evenodd" clip-rule="evenodd" d="M102.783 109.353C107.15 107.532 111.048 104.461 114.093 100.581C133.414 75.9726 121.158 41.298 97.508 21.8324C71.0595 0.0643299 32.4426 19.3956 18.962 44.1678C5.50721 68.897 14.788 102.735 42.1389 117.187C62.6261 128.009 87.6643 123.477 102.783 109.353Z" fill="#B5DFEB"/>
</mask>
<g mask="url(#mask0_853_19058)">
<path fill-rule="evenodd" clip-rule="evenodd" d="M102.783 109.353C107.15 107.532 111.048 104.461 114.093 100.581C133.414 75.9726 121.158 41.298 97.508 21.8324C71.0595 0.0643299 32.4426 19.3956 18.962 44.1678C5.50721 68.897 14.788 102.735 42.1389 117.187C62.6261 128.009 87.6643 123.477 102.783 109.353Z" fill="#B5DFEB"/>
<path d="M74.2176 28.3811L74.4195 28.8601L87.6032 45.3291C84.7188 49.8786 83.384 55.2849 83.8085 60.6995C83.0545 62.7174 88.3476 92.0729 91.8971 111.09L77.2428 102.916L74.2301 100.575L66.6562 100.534C62.8708 79.4002 60.2182 45.9356 69.4923 32.8448C70.7948 31.0758 72.3952 29.5619 74.2176 28.3749" fill="#D6A872"/>
<path d="M39.6813 181.523C28.6209 177.692 18.8912 154.202 18.8912 154.202C18.8912 154.202 29.305 109.44 31.9142 104.659C34.5234 99.8778 53.9718 88.9155 53.9718 88.9155L75.9955 89.032L98.1851 105.809L96.0198 164.115C85.9132 163.82 75.3682 168.425 65.8742 173.036C55.0357 178.297 45.5655 183.557 39.6776 181.523" fill="#B8BE04"/>
<path d="M52.9551 66.4267C54.5644 68.0823 55.9581 69.9346 57.1032 71.9395L53.9712 88.9153C53.9712 88.9153 56.8207 104.292 68.8478 102.976C80.8749 101.66 75.9949 89.0354 75.9949 89.0354C73.4826 84.9304 72.3176 80.1423 72.663 75.342C74.6652 75.7565 76.7501 75.3932 78.494 74.3258C85.2908 69.9777 88.4906 61.7154 88.4906 59.6987C88.4906 57.682 86.4418 55.6019 86.1767 52.6369C85.7246 47.5396 86.9416 41.2591 85.3422 36.8451C83.8391 32.7073 80.4141 29.5614 76.1636 28.4149C76.1636 28.4149 56.6217 29.7136 51.174 38.4115C45.7264 47.1094 52.9569 66.4322 52.9569 66.4322" fill="#F3BC92"/>
<path d="M70.3783 54.5317C70.3783 56.1972 69.6629 57.6298 68.6293 57.7132C67.5957 57.7967 66.73 56.4971 66.663 54.8316C66.5961 53.1661 67.3793 51.7134 68.3294 51.6327C69.2796 51.552 70.2288 52.8488 70.2948 54.5317" fill="#471F05"/>
<path d="M73.5469 67.6339H73.5066C71.23 67.4936 69.1326 66.3517 67.7792 64.5157C67.5743 64.2371 67.634 63.8452 67.9126 63.6403C68.1912 63.4354 68.5831 63.4952 68.788 63.7738C69.9228 65.3124 71.6809 66.2692 73.5891 66.3866C73.928 66.4048 74.1904 66.6903 74.1799 67.0296C74.1695 67.3688 73.89 67.6376 73.5506 67.6348L73.5469 67.6339Z" fill="#471F05"/>
<path d="M63.2493 50.6407C62.9985 50.6407 62.7719 50.4906 62.6741 50.2596C62.5763 50.0286 62.6262 49.7615 62.8008 49.5814C64.7037 47.614 67.335 46.5204 70.0717 46.5595C70.4167 46.5618 70.6944 46.8432 70.6922 47.1882C70.6899 47.5331 70.4084 47.8109 70.0635 47.8086H69.9461C67.5927 47.8128 65.3405 48.7657 63.6987 50.4517C63.5807 50.573 63.4185 50.6412 63.2493 50.6407Z" fill="#471F05"/>
<path d="M79.5433 54.5317C79.5433 56.1972 80.2587 57.6298 81.2088 57.7132C82.1589 57.7967 83.1082 56.4971 83.1751 54.8316C83.2421 53.1661 82.4588 51.7134 81.4262 51.6327C80.3935 51.552 79.5268 52.8488 79.4599 54.5317" fill="#471F05"/>
<path d="M86.1236 50.6405C85.954 50.6412 85.7915 50.5722 85.6742 50.4497C84.0143 48.7251 81.712 47.7683 79.3186 47.8084C79.1515 47.8168 78.9885 47.7554 78.8685 47.6389C78.7484 47.5224 78.6823 47.3612 78.6858 47.1939C78.6831 47.0283 78.7463 46.8683 78.8616 46.7493C78.9768 46.6303 79.1346 46.5619 79.3003 46.5593C82.0391 46.5171 84.6727 47.613 86.573 49.5858C86.7471 49.7661 86.7965 50.033 86.6986 50.2637C86.6006 50.4944 86.3742 50.6441 86.1236 50.6441V50.6405Z" fill="#471F05"/>
<path d="M74.9118 60.9534C74.6062 60.9518 74.3465 60.7295 74.2976 60.4279C74.2488 60.1262 74.4251 59.8334 74.7146 59.7354C75.1273 59.5979 76.0068 59.1476 76.0957 58.6349C76.1352 58.4056 75.7674 57.8425 75.4418 57.3509C74.6311 56.2344 74.06 54.9624 73.7644 53.6146C73.7144 53.3913 73.7903 53.1586 73.9624 53.0077C74.1344 52.8568 74.3751 52.8119 74.5899 52.8906C74.8048 52.9693 74.9595 53.159 74.9934 53.3853C75.26 54.5704 75.7686 55.6876 76.4874 56.6668C77.0257 57.4922 77.4512 58.1387 77.3265 58.8541C77.0853 60.2298 75.3089 60.8562 75.1071 60.9231L74.9118 60.9534Z" fill="#471F05"/>
<path d="M75.3793 90.682C75.3793 90.682 66.6667 102.01 55.3862 91.5156L64.5326 131.594L68.3129 171.908L74.4099 169.427L71.0799 131.594L75.3775 90.6792" fill="#F6F6F9"/>
<path d="M75.9942 86.7334L75.7805 88.674L74.4342 100.833L72.0194 122.655L71.0298 131.596L83.6402 107.657L79.5425 103.109H85.8229L83.2578 93.2293L75.9942 86.7334Z" fill="#D3D236"/>
<path d="M53.112 91.8933L46.2648 98.9395L44.7827 108.969L51.0292 108.486L47.3479 113.333L63.6396 138.805L54.6747 98.8588L53.5403 93.8027L53.112 91.8933Z" fill="#D3D236"/>
<path d="M66.9381 39.1511L94.8249 52.3791C94.8249 52.3791 97.0287 17.1986 57.8815 30.2232L66.9381 39.1511Z" fill="#D6A872"/>
<path d="M45.9769 114.74C49.5268 118.328 54.2014 122.078 68.4427 122.578C68.4427 122.578 56.6565 63.8326 57.7364 61.0543C56.1285 43.3208 76.9624 32.9762 76.9624 32.9762C76.9624 32.9762 54.8636 21.2249 43.9723 35.2817C30.9301 52.9679 42.43 111.119 45.9769 114.74Z" fill="#D6A872"/>
<path d="M58.6186 61.5115C56.0822 61.9826 54.0835 60.9767 53.8482 56.8933C53.6129 52.8099 56.2263 52.2051 58.704 52.7131C61.1816 53.2211 61.9689 54.9409 61.7912 57.3726C61.6136 59.8043 61.1562 61.0409 58.6186 61.5115Z" fill="#F3BC92"/>
</g>
</svg>
