<svg fill="none" height="276" opacity=".3" viewBox="0 0 272 276" width="272" xmlns="http://www.w3.org/2000/svg"><g fill="#c9cbd4"><path d="m326.148 13.3229c-.948.0643-1.897.1608-2.846.2733.563-.0804 1.142-.1607 1.705-.225-3.088.434-6.111 1.2217-8.989 2.4113.515-.209 1.029-.4341 1.544-.643-2.46 1.0449-4.792 2.3631-6.914 3.9867.434-.3376.868-.6752 1.302-1.0128-1.881 1.4468-3.57 3.1026-5.033 4.9834.338-.434.675-.868 1.013-1.3021-2.171 2.8132-3.779 5.964-5.161 9.2113.209-.5144.434-1.0289.643-1.5433-1.849 4.3726-3.184 9.0345-5.371 13.2623-2.283 4.4208-5.756 7.9574-9.664 10.9314-3.682 2.8132-8.007 4.9191-12.461 6.2051-4.905 1.4147-10.147 1.6879-15.212 1.2378-5.788-.5144-11.481-1.7201-17.221-2.5078.563.0804 1.142.1608 1.704.2251-4.084-.5466-8.264-.8681-12.365-.3376.563-.0804 1.142-.1607 1.705-.225-2.557.3536-5.065 1.0288-7.445 2.0094.514-.209 1.029-.434 1.543-.643-2.508 1.061-4.856 2.4595-7.026 4.1314.434-.3376.868-.6752 1.302-1.0128-2.621 2.0416-4.936 4.4208-6.978 7.0411.337-.4341.675-.8681 1.013-1.3021-2.766 3.5848-5.001 7.5555-6.77 11.7351.209-.5144.434-1.0288.643-1.5433-2.042 4.8709-3.457 9.999-4.164 15.2235.08-.5626.16-1.1413.225-1.704-.048.3215-.081.6591-.129.9806-.209 1.7683-.579 3.2473-1.881 4.5494-1.11 1.1092-2.943 1.9612-4.551 1.8808-1.656-.0803-3.393-.6269-4.55-1.8808-1.078-1.1735-2.075-2.8936-1.882-4.5494 1.255-10.8349 4.84-21.7019 11.417-30.5113 3.521-4.7262 7.59-8.8736 12.639-11.9923 5.113-3.1508 10.934-4.8709 16.915-5.2406 8.121-.4983 16.16 1.5593 24.168 2.6525-.563-.0804-1.142-.1608-1.704-.2251 4.196.5626 8.441.8359 12.654.2733-.563.0804-1.141.1608-1.704.2251 2.669-.3859 5.242-1.1093 7.734-2.1542-.515.209-1.029.4341-1.544.6431 2.637-1.1253 5.13-2.5561 7.413-4.3083-.434.3376-.868.6752-1.302 1.0128 1.865-1.4468 3.553-3.1026 5.016-4.9674-.337.4341-.675.8681-1.013 1.3022 1.239-1.6076 2.268-3.3437 3.072-5.2085-.209.5144-.434 1.0288-.644 1.5432 2.654-6.3819 4.599-13.214 8.442-19.0333 2.396-3.617 5.258-6.5749 8.715-9.17917 2.959-2.25057 6.288-3.85812 9.777-5.14416 3.907-1.44679 8.088-2.138031 12.22-2.395238 1.576-.096453 3.457.787688 4.551 1.880828 1.109 1.10921 1.962 2.94182 1.881 4.54937-.08 1.65578-.627 3.39197-1.881 4.54937-1.303 1.1896-2.782 1.7683-4.551 1.8808z"/><path d="m309.289 145.853c-.155 11.454-3.318 22.804-9.134 32.668-5.797 9.833-13.872 18.244-23.455 24.464-9.54 6.193-20.545 10.01-31.882 11.01-5.98.523-12.126.103-18.002-1.097-3.638-.741-7.177-1.899-10.603-3.324-3.45-1.43-6.555-3.329-9.567-5.523-8.989-6.511-14.936-17.542-13.873-28.804.486-5.178 1.901-10.257 4.711-14.675 2.825-4.426 6.53-8.289 11.142-10.873 4.74-2.664 10.184-4.121 15.641-3.987 6.389.172 13.054 2.012 18.358 5.618 3.03 2.064 5.716 4.34 8.036 7.176 2.353 2.857 4.436 5.821 6.147 9.112 3.113 5.983 5.389 12.403 7.002 18.934 3.173 12.879 3.771 26.1 2.224 39.24-1.484 12.568-5.304 24.935-11.096 36.187-1.36 2.635-2.838 5.205-4.436 7.71-.98 1.552-2.247 2.767-4.059 3.291-1.561.448-3.619.314-5.045-.526-1.522-.899-2.868-2.282-3.29-4.057-.394-1.634-.408-3.581.527-5.045 3.646-5.723 6.671-11.813 9.07-18.15-.202.539-.403 1.078-.605 1.617 3.067-8.171 5.074-16.715 6.003-25.406-.063.572-.125 1.144-.188 1.716.9-8.673.726-17.454-.597-26.08.096.573.178 1.155.274 1.727-1.194-7.678-3.221-15.298-6.345-22.42.237.545.483 1.105.735 1.641-1.754-3.937-3.877-7.705-6.599-11.065.38.457.769.929 1.135 1.395-1.82-2.217-3.868-4.195-6.198-5.86.468.343.951.678 1.42 1.021-1.876-1.313-3.873-2.374-6-3.197.539.202 1.077.403 1.616.604-2.358-.878-4.777-1.501-7.278-1.777.571.062 1.143.125 1.715.187-2.18-.236-4.367-.193-6.521.127.573-.097 1.155-.179 1.728-.275-2.085.336-4.094.923-6.035 1.782.546-.237 1.106-.483 1.642-.735-1.917.865-3.684 1.974-5.319 3.297.457-.381.929-.77 1.395-1.136-1.732 1.423-3.262 3.076-4.573 4.892.343-.469.678-.952 1.022-1.42-1.294 1.844-2.35 3.818-3.145 5.927.201-.539.403-1.078.604-1.617-.75 2.023-1.245 4.105-1.471 6.24.063-.572.125-1.144.188-1.716-.223 2.172-.18 4.358.153 6.503-.096-.573-.177-1.155-.273-1.728.351 2.174.975 4.278 1.864 6.298-.237-.545-.483-1.105-.734-1.641.947 2.083 2.161 4.021 3.595 5.804-.38-.457-.769-.928-1.135-1.394 1.846 2.26 4.035 4.21 6.406 5.909-.468-.343-.951-.678-1.42-1.021 2.851 1.997 5.944 3.587 9.196 4.823-.539-.201-1.078-.402-1.617-.604 4.155 1.549 8.507 2.522 12.93 2.997-.572-.062-1.144-.125-1.716-.187 4.916.507 9.859.385 14.74-.351-.573.096-1.155.178-1.728.274 5.394-.834 10.632-2.401 15.603-4.595-.546.238-1.105.484-1.642.735 5.442-2.424 10.517-5.57 15.129-9.34-.457.38-.929.77-1.394 1.136 4.546-3.749 8.589-8.057 12.01-12.831-.344.468-.679.951-1.022 1.42 3.122-4.393 5.683-9.151 7.601-14.184-.201.539-.403 1.078-.604 1.617 1.76-4.679 2.935-9.571 3.483-14.55-.063.572-.125 1.143-.188 1.715.176-1.767.291-3.537.308-5.305.02-1.731.6-3.451 1.799-4.743 1.146-1.219 3.071-2.168 4.764-2.145 3.518.065 6.925 2.806 6.873 6.57z"/><path d="m37.1643 76.4566c-1.2294 3.1059-2.1598 6.3447-3.1732 9.5337-1.7942 5.6969-3.5552 11.4104-5.3162 17.1077-2.0435 6.61-4.0703 13.22-6.1138 19.814-1.8274 5.897-3.6549 11.776-5.5322 17.656-1.1297 3.554-2.2096 7.142-3.5885 10.613-.2824.714-.5815 1.428-.8971 2.143-.7975-3.023-1.5949-6.063-2.3923-9.086.1661.083.3322.15.4984.233-.5317-.216-1.0633-.448-1.59493-.664 2.85753 1.195 5.84793 2.109 8.77183 3.089 3.6051 1.212 7.2268 2.392 10.8153 3.671 1.6281.581 3.3061 1.162 4.8511 1.943 1.4288.731 2.6415 2.458 3.0569 3.969.4319 1.595.2325 3.704-.6646 5.116-2.0434 3.172-5.7648 4.069-9.0875 2.392-.1661-.083-.3322-.15-.4984-.233.5317.216 1.0633.449 1.5949.665-2.8575-1.196-5.8479-2.11-8.7718-3.09-3.6051-1.212-7.2268-2.391-10.81533-3.67-1.62811-.582-3.30605-1.163-4.85109-1.944-1.37891-.697-2.707956-2.474-3.056836-3.969-.083067-.582-.166158-1.179-.232611-1.761 0-1.196.29904-2.308.913737-3.355.01661-.05.04986-.1.06647-.149-.215969.531-.448556 1.063-.664529 1.594 1.312459-3.156 2.292619-6.461 3.339259-9.716 1.82747-5.681 3.6051-11.361 5.36612-17.058 2.02681-6.544 4.03701-13.104 6.06391-19.648 1.7942-5.8302 3.5884-11.6766 5.4325-17.5064 1.1131-3.5377 2.193-7.1087 3.4722-10.5966.0665-.1993.1495-.3986.2326-.5979.6645-1.6609 1.4454-3.0395 3.0569-3.9696 1.4287-.8304 3.522-1.1792 5.1169-.6644 1.6115.5149 3.1565 1.5115 3.9706 3.0561.7476 1.445 1.2792 3.4547.6313 5.0824z"/><path d="m125.978 130.2c-1.746-.105-3.492-.07-5.22.157.611-.087 1.239-.175 1.851-.244-2.043.296-4.034.837-5.954 1.623.559-.227 1.117-.471 1.676-.698-2.148.907-4.138 2.077-5.971 3.491.471-.367.943-.733 1.414-1.1-1.833 1.431-3.457 3.09-4.889 4.922.367-.471.734-.942 1.1-1.413-1.414 1.85-2.584 3.84-3.492 5.987.227-.559.472-1.118.699-1.676-.821 1.99-1.414 4.067-1.711 6.196.087-.61.174-1.239.244-1.85-.297 2.165-.279 4.347 0 6.511-.087-.611-.174-1.239-.244-1.85.332 2.339.96 4.608 1.868 6.772-.227-.558-.471-1.117-.698-1.675.925 2.164 2.112 4.206 3.561 6.091-.366-.471-.733-.942-1.1-1.413 1.397 1.797 2.986 3.403 4.784 4.8-.471-.367-.943-.733-1.414-1.1 1.676 1.274 3.474 2.339 5.395 3.177-.559-.227-1.117-.471-1.676-.698 2.078.872 4.243 1.483 6.477 1.797-.611-.087-1.239-.174-1.85-.244 2.077.262 4.172.279 6.268 0-.611.087-1.24.175-1.851.244 2.147-.296 4.243-.872 6.233-1.71-.559.227-1.117.471-1.676.698 2.112-.89 4.068-2.06 5.884-3.456-.472.367-.943.733-1.415 1.1 1.921-1.484 3.632-3.212 5.116-5.132-.367.471-.733.942-1.1 1.414 1.519-1.973 2.776-4.137 3.754-6.441-.227.558-.471 1.117-.698 1.676.873-2.113 1.484-4.312 1.815-6.581-.087.611-.174 1.239-.244 1.85.297-2.147.297-4.329.035-6.476.087.611.174 1.24.244 1.851-.279-2.095-.838-4.12-1.641-6.075.227.559.471 1.117.698 1.676-.855-2.025-1.972-3.893-3.299-5.638.366.471.733.943 1.1 1.414-1.345-1.728-2.881-3.264-4.61-4.591.472.367.943.733 1.414 1.1-1.833-1.379-3.806-2.514-5.918-3.421.558.227 1.117.471 1.676.698-2.2-.908-4.505-1.536-6.862-1.868.611.087 1.24.175 1.851.245-.541-.053-1.083-.105-1.624-.14-1.868-.14-3.579-.681-4.941-2.042-1.205-1.205-2.13-3.195-2.043-4.94.088-1.798.681-3.683 2.043-4.94 1.31-1.204 3.108-2.182 4.941-2.042 7.997.611 15.574 3.7 21.423 9.268 4.505 4.277 7.944 10.264 9.079 16.391 1.065 5.725.768 11.695-1.31 17.158-2.042 5.376-5.15 10.333-9.463 14.191-4.26 3.805-9.428 6.773-15.05 7.959-5.953 1.24-12.274.908-17.948-1.413-3.754-1.536-7.001-3.474-10.057-6.179-2.531-2.252-4.7137-5.01-6.4247-7.925-3.4396-5.847-5.3252-13.056-4.4871-19.846.2444-1.938.5063-3.858 1.0825-5.726.5587-1.885 1.3269-3.718 2.1824-5.481 1.4666-3.054 3.5617-5.882 5.8839-8.326 4.714-4.957 11.226-8.692 18.036-9.67 2.374-.349 4.679-.576 7.088-.419 1.868.123 3.597.699 4.941 2.043 1.205 1.204 2.13 3.194 2.043 4.939-.087 1.798-.681 3.683-2.043 4.94-1.344 1.222-3.125 2.182-4.976 2.06z"/><path d="m137.074 71.2808c-2.988 1.6977-6.302 3.02-9.699 3.6566-1.926.3592-3.902.6203-5.862.6856-2.024.0653-4-.1632-6.009-.457-6.27-.8979-12.181-3.9669-16.8343-8.2438-2.5146-2.3181-4.7189-5.1748-6.2375-8.2438-.7838-1.5835-1.143-3.2812-.6531-5.0279.4245-1.5182 1.5839-3.1506 3.0044-3.9015 1.5186-.7999 3.3474-1.208 5.0292-.653 1.5513.5061 3.1513 1.4855 3.9023 3.0037.702 1.4039 1.519 2.7098 2.482 3.9505-.343-.4408-.686-.8815-1.029-1.3223 1.274 1.6161 2.727 3.0527 4.344 4.326-.441-.3429-.882-.6857-1.323-1.0285 1.829 1.4039 3.821 2.5629 5.944 3.4608-.523-.2123-1.045-.4408-1.568-.653 2.058.8489 4.213 1.4365 6.417 1.7467-.571-.0816-1.159-.1632-1.73-.2285 2.286.2938 4.604.2938 6.89.0163-.571.0816-1.159.1632-1.731.2285 2.384-.3265 4.703-.9468 6.924-1.8773-.523.2122-1.045.4408-1.568.653.931-.4081 1.829-.8489 2.727-1.3549 1.486-.8489 3.38-1.1101 5.029-.653 1.519.4244 3.152 1.5835 3.903 3.0037 1.633 3.0853.833 7.1011-2.352 8.9131z"/></g></svg>