<?xml version="1.0" encoding="UTF-8"?>
<svg width="1462px" height="627px" viewBox="0 0 1462 627" version="1.1" xmlns="http://www.w3.org/2000/svg" xmlns:xlink="http://www.w3.org/1999/xlink">
    <!-- Generator: Sketch 62 (91390) - https://sketch.com -->
    <title>Freckles</title>
    <desc>Created with Sketch.</desc>
    <g id="Home" stroke="none" stroke-width="1" fill="none" fill-rule="evenodd" opacity="0.3">
        <g id="Homepage" transform="translate(-24.000000, -3990.000000)" fill="#A7ACB7" stroke="#A7ACB7" stroke-width="5">
            <g id="Integrations" transform="translate(27.000000, 3993.000000)">
                <g id="Freckles">
                    <g>
                        <path d="M103.447524,0.252489936 C96.3415238,-0.787510064 88.2705238,1.23348994 86.2975238,9.14248994 C84.6455238,15.7694899 90.1335238,21.7904899 96.3165238,23.1954899 C102.655524,24.6384899 109.546524,21.9654899 112.444524,15.9744899 C115.711524,9.21948994 111.731524,1.23648994 104.295524,0.496489936 C104.027524,0.383489936 103.745524,0.296489936 103.447524,0.252489936 Z" id="Fill-1"></path>
                        <path d="M85.1965,86.0424239 C84.4265,85.5284239 83.5935,85.1524239 82.7415,84.9274239 C81.9185,84.3024239 80.9185,83.9354239 79.8505,84.0094239 C73.5155,84.4514239 66.4505,87.3304239 65.7955,94.5594239 C65.2105,101.011424 70.6585,106.727424 77.0695,106.72043 C83.6905,106.712424 89.5925,100.626424 89.3425,94.0274239 C89.2255,90.9394239 87.8085,87.7914239 85.1965,86.0424239" id="Fill-4"></path>
                        <path d="M342.5893,50.8814239 C341.8193,49.6054239 340.4663,48.6864239 338.5173,48.6833938 C331.7473,48.6754239 323.5303,50.2584239 321.3793,57.8324239 C319.3333,65.0364239 325.5203,71.0154239 331.9633,72.8354239 C338.6923,74.7354239 346.4153,71.9924239 349.0673,65.1974239 C351.4153,59.1794239 348.1403,52.9524239 342.5893,50.8814239" id="Fill-8"></path>
                        <path d="M1311.60822,437.197954 C1310.83822,435.921954 1309.48522,435.002954 1307.53622,434.999924 C1300.76622,434.991954 1292.54922,436.574954 1290.39822,444.148954 C1288.35222,451.352954 1294.53922,457.331954 1300.98222,459.151954 C1307.71122,461.051954 1315.43422,458.308954 1318.08622,451.513954 C1320.43422,445.495954 1317.15922,439.268954 1311.60822,437.197954" id="Fill-8"></path>
                        <path d="M18.4808415,232.615009 C17.6768415,231.676009 16.4788415,231.036009 14.8848415,231.003009 C7.72984145,230.851009 -0.689158549,236.330009 0.0448414511,244.292009 C0.799841451,252.474009 11.6448415,256.755009 18.7598415,255.264009 C25.9278415,253.763009 31.1468415,245.644009 27.4308415,238.748009 C25.5558415,235.267009 22.0018415,233.019009 18.4808415,232.615009" id="Fill-11"></path>
                        <path d="M120.976215,297.646655 C120.321215,296.847655 119.416215,296.211655 118.381215,295.793655 C111.816215,293.141655 104.839215,297.505655 101.888215,303.396655 C98.588215,309.984655 105.095215,316.877655 111.360215,318.322655 C117.614215,319.764655 124.577215,316.055655 126.204215,309.672655 C127.422215,304.891655 124.976215,299.995655 120.976215,297.646655" id="Fill-13"></path>
                        <path d="M1448.60822,598.197954 C1447.83822,596.921954 1446.48522,596.002954 1444.53622,595.999924 C1437.76622,595.991954 1429.54922,597.574954 1427.39822,605.148954 C1425.35222,612.352954 1431.53922,618.331954 1437.98222,620.151954 C1444.71122,622.051954 1452.43422,619.308954 1455.08622,612.513954 C1457.43422,606.495954 1454.15922,600.268954 1448.60822,598.197954" id="Fill-8"></path>
                        <path d="M1395.60822,479.197954 C1394.83822,477.921954 1393.48522,477.002954 1391.53622,476.999924 C1384.76622,476.991954 1376.54922,478.574954 1374.39822,486.148954 C1372.35222,493.352954 1378.53922,499.331954 1384.98222,501.151954 C1391.71122,503.051954 1399.43422,500.308954 1402.08622,493.513954 C1404.43422,487.495954 1401.15922,481.268954 1395.60822,479.197954" id="Fill-8"></path>
                    </g>
                </g>
            </g>
        </g>
    </g>
</svg>