<svg width="398" height="556" viewBox="0 0 398 556" fill="none" xmlns="http://www.w3.org/2000/svg">
<g opacity="0.2">
<path fill-rule="evenodd" clip-rule="evenodd" d="M93.4531 5.26692C85.9376 4.16781 77.4014 6.30367 75.3147 14.6622C73.5675 21.6658 79.3718 28.029 85.9111 29.5138C92.6155 31.0389 99.9037 28.2139 102.969 21.8825C106.424 14.7435 102.215 6.30684 94.35 5.52479C94.0666 5.40537 93.7683 5.31342 93.4531 5.26692Z" fill="white" stroke="white" stroke-width="9.37857"/>
<path fill-rule="evenodd" clip-rule="evenodd" d="M71.1068 123.932C70.2925 123.389 69.4114 122.992 68.5103 122.754C67.6399 122.094 66.5823 121.706 65.4527 121.784C58.7526 122.251 51.2804 125.294 50.5876 132.933C49.9689 139.752 55.7309 145.793 62.5114 145.786C69.514 145.777 75.7562 139.345 75.4918 132.371C75.3681 129.108 73.8694 125.781 71.1068 123.932Z" fill="white"/>
<path d="M71.1068 123.932C70.2925 123.389 69.4114 122.992 68.5103 122.754C67.6399 122.094 66.5823 121.706 65.4527 121.784C58.7526 122.251 51.2804 125.294 50.5876 132.933C49.9689 139.752 55.7309 145.793 62.5114 145.786C69.514 145.777 75.7562 139.345 75.4918 132.371C75.3681 129.108 73.8694 125.781 71.1068 123.932" stroke="white" stroke-width="9.37857"/>
<path fill-rule="evenodd" clip-rule="evenodd" d="M314.335 86.7731C313.521 85.4246 312.09 84.4534 310.028 84.4502C302.868 84.4418 294.178 86.1147 291.903 94.1192C289.739 101.733 296.282 108.051 303.097 109.975C310.213 111.983 318.382 109.084 321.186 101.903C323.67 95.5427 320.206 88.9618 314.335 86.7731Z" fill="white"/>
<path d="M314.335 86.7731C313.521 85.4246 312.09 84.4534 310.028 84.4502C302.868 84.4418 294.178 86.1147 291.903 94.1192C289.739 101.733 296.282 108.051 303.097 109.975C310.213 111.983 318.382 109.084 321.186 101.903C323.67 95.5427 320.206 88.9618 314.335 86.7731" stroke="white" stroke-width="9.37857"/>
<path fill-rule="evenodd" clip-rule="evenodd" d="M24.546 278.836C23.6957 277.843 22.4286 277.167 20.7428 277.132C13.1754 276.971 4.27112 282.762 5.04743 291.176C5.84594 299.823 17.316 304.347 24.8411 302.772C32.4223 301.185 37.9421 292.605 34.0119 285.317C32.0288 281.638 28.27 279.262 24.546 278.836Z" fill="white"/>
<path d="M24.546 278.836C23.6957 277.843 22.4286 277.167 20.7428 277.132C13.1754 276.971 4.27112 282.762 5.04743 291.176C5.84594 299.823 17.316 304.347 24.8411 302.772C32.4223 301.185 37.9421 292.605 34.0119 285.317C32.0288 281.638 28.27 279.262 24.546 278.836" stroke="white" stroke-width="9.37857"/>
<path fill-rule="evenodd" clip-rule="evenodd" d="M108.949 397.563C108.256 396.718 107.299 396.046 106.204 395.604C99.2609 392.802 91.8818 397.414 88.7607 403.64C85.2705 410.602 92.1525 417.887 98.7786 419.414C105.393 420.938 112.757 417.018 114.478 410.272C115.766 405.22 113.179 400.045 108.949 397.563Z" fill="white"/>
<path d="M108.949 397.563C108.256 396.718 107.299 396.046 106.204 395.604C99.2609 392.802 91.8818 397.414 88.7607 403.64C85.2705 410.602 92.1525 417.887 98.7786 419.414C105.393 420.938 112.757 417.018 114.478 410.272C115.766 405.22 113.179 400.045 108.949 397.563" stroke="white" stroke-width="9.37857"/>
<path fill-rule="evenodd" clip-rule="evenodd" d="M264.83 264.462C264.017 263.033 262.587 262.003 260.528 262C253.375 261.991 244.693 263.764 242.421 272.249C240.259 280.319 246.796 287.017 253.603 289.056C260.713 291.185 268.872 288.112 271.674 280.5C274.155 273.758 270.695 266.782 264.83 264.462Z" fill="white"/>
<path d="M264.83 264.462C264.017 263.033 262.587 262.003 260.528 262C253.375 261.991 244.693 263.764 242.421 272.249C240.259 280.319 246.796 287.017 253.603 289.056C260.713 291.185 268.872 288.112 271.674 280.5C274.155 273.758 270.695 266.782 264.83 264.462" stroke="white" stroke-width="9.37857"/>
<path fill-rule="evenodd" clip-rule="evenodd" d="M385.411 525.972C384.597 524.542 383.168 523.513 381.109 523.509C373.956 523.5 365.274 525.274 363.002 533.758C360.84 541.829 367.377 548.527 374.184 550.566C381.293 552.694 389.453 549.621 392.255 542.009C394.736 535.267 391.276 528.292 385.411 525.972Z" fill="white"/>
<path d="M385.411 525.972C384.597 524.542 383.168 523.513 381.109 523.509C373.956 523.5 365.274 525.274 363.002 533.758C360.84 541.829 367.377 548.527 374.184 550.566C381.293 552.694 389.453 549.621 392.255 542.009C394.736 535.267 391.276 528.292 385.411 525.972" stroke="white" stroke-width="9.37857"/>
<path fill-rule="evenodd" clip-rule="evenodd" d="M318.98 334.324C318.166 332.894 316.737 331.865 314.677 331.861C307.525 331.852 298.843 333.626 296.57 342.111C294.409 350.181 300.946 356.879 307.753 358.918C314.862 361.046 323.022 357.973 325.824 350.361C328.305 343.62 324.845 336.644 318.98 334.324Z" fill="white"/>
<path d="M318.98 334.324C318.166 332.894 316.737 331.865 314.677 331.861C307.525 331.852 298.843 333.626 296.57 342.111C294.409 350.181 300.946 356.879 307.753 358.918C314.862 361.046 323.022 357.973 325.824 350.361C328.305 343.62 324.845 336.644 318.98 334.324" stroke="white" stroke-width="9.37857"/>
</g>
</svg>
