<?xml version="1.0" encoding="UTF-8"?>
<svg width="1560px" height="632px" viewBox="0 0 1560 632" version="1.1" xmlns="http://www.w3.org/2000/svg" xmlns:xlink="http://www.w3.org/1999/xlink">
    <!-- Generator: Sketch 62 (91390) - https://sketch.com -->
    <title>Squiggles</title>
    <desc>Created with Sketch.</desc>
    <g id="Home" stroke="none" stroke-width="1" fill="none" fill-rule="evenodd" opacity="0.4">
        <g id="Homepage" transform="translate(-15.000000, -1743.000000)" fill="#DEDFE4">
            <g id="Solve-like-an-enterprise" transform="translate(15.000000, 1743.000000)">
                <g id="Bit">
                    <g id="Squiggles">
                        <path d="M48.0735469,38.9548227 C53.0508167,87.5477236 92.6334501,129.530631 142.838745,131.901425 C208.951596,135.025801 223.333046,63.2106037 224,11.5531347 C224.19824,-3.84625988 200.165069,-3.85582918 199.965594,11.5531347 C199.480124,49.1915804 193.555947,110.624088 142.838745,107.978177 C106.647192,106.090633 75.7285173,74.2942443 72.1067183,38.9548227 C70.5541755,23.7874836 46.5041808,23.6271979 48.0735469,38.9548227" id="Fill-3"></path>
                        <path d="M1384.07355,336.954823 C1389.05082,385.547724 1428.63345,427.530631 1478.83875,429.901425 C1544.9516,433.025801 1559.33305,361.210604 1560,309.553135 C1560.19824,294.15374 1536.16507,294.144171 1535.96559,309.553135 C1535.48012,347.19158 1529.55595,408.624088 1478.83875,405.978177 C1442.64719,404.090633 1411.72852,372.294244 1408.10672,336.954823 C1406.55418,321.787484 1382.50418,321.627198 1384.07355,336.954823" id="Fill-3"></path>
                        <path d="M357.073547,538.954823 C362.050817,587.547724 401.63345,629.530631 451.838745,631.901425 C517.951596,635.025801 532.333046,563.210604 533,511.553135 C533.19824,496.15374 509.165069,496.144171 508.965594,511.553135 C508.480124,549.19158 502.555947,610.624088 451.838745,607.978177 C415.647192,606.090633 384.728517,574.294244 381.106718,538.954823 C379.554175,523.787484 355.504181,523.627198 357.073547,538.954823" id="Fill-3"></path>
                        <path d="M0.0735468941,316.954823 C5.0508167,365.547724 44.6334501,407.530631 94.8387452,409.901425 C160.951596,413.025801 175.333046,341.210604 176,289.553135 C176.19824,274.15374 152.165069,274.144171 151.965594,289.553135 C151.480124,327.19158 145.555947,388.624088 94.8387452,385.978177 C58.6471923,384.090633 27.7285173,352.294244 24.1067183,316.954823 C22.5541755,301.787484 -1.4958192,301.627198 0.0735468941,316.954823" id="Fill-3"></path>
                        <path d="M230.310319,174.71285 C226.092981,226.947372 265.337787,275.196011 319.023489,275.991265 C343.050774,276.346847 367.486809,265.840359 380.932279,245.471274 C396.236359,222.283961 395.584763,189.983658 391.528521,163.697015 C389.177006,148.462246 366.005692,154.932398 368.34278,170.083076 C371.302611,189.246065 371.882074,214.646155 361.187251,231.795781 C351.685016,247.025744 332.565135,253.080249 315.356762,251.826102 C275.655117,248.930991 251.31045,212.399742 254.354435,174.71285 C255.59992,159.300291 231.550995,159.381979 230.310319,174.71285" id="Fill-7"></path>
                    </g>
                </g>
            </g>
        </g>
    </g>
</svg>