<svg xmlns="http://www.w3.org/2000/svg" viewBox="0 0 24 24"><g id="Boundary"><rect x="0.045" y="0.045" width="24" height="24" style="fill:none"/></g><g id="Design"><path d="M22.5,6H17V3.3A1.3,1.3,0,0,0,15.7,2H8.3A1.3,1.3,0,0,0,7,3.3V6H1.5A1.5,1.5,0,0,0,0,7.5v13A1.5,1.5,0,0,0,1.5,22h21A1.5,1.5,0,0,0,24,20.5V7.5A1.5,1.5,0,0,0,22.5,6ZM9,4h6V6H9ZM21.929,9.371l-2,5A1,1,0,0,1,19,15H15v.5a.5.5,0,0,1-.5.5h-5a.5.5,0,0,1-.5-.5V15H5a1,1,0,0,1-.929-.629l-2-5a1,1,0,1,1,1.858-.742L5.677,13H9v-.5a.5.5,0,0,1,.5-.5h5a.5.5,0,0,1,.5.5V13h3.323l1.748-4.371a1,1,0,1,1,1.858.742Z" style="fill:#ef463c"/></g></svg>