<svg xmlns="http://www.w3.org/2000/svg" viewBox="0 0 24 24"><rect x="0.04" y="0.04" width="24" height="24" style="fill:none"/><polygon points="21 6 16 1 16 6 21 6" style="fill:#ef463c"/><path d="M15,8a1,1,0,0,1-1-1V1H5A1,1,0,0,0,4,2V23a1,1,0,0,0,1,1H20a1,1,0,0,0,1-1V8ZM12,22H7a1,1,0,0,1,0-2h5a1,1,0,0,1,0,2Zm6-4H7a1,1,0,0,1,0-2H18a1,1,0,0,1,0,2Zm0-4H7a1,1,0,0,1,0-2H18a1,1,0,0,1,0,2Z" style="fill:#ef463c"/><polygon points="21 6 16 1 16 6 21 6" style="fill:#ef463c"/><path d="M15,8a1,1,0,0,1-1-1V1H5A1,1,0,0,0,4,2V23a1,1,0,0,0,1,1H20a1,1,0,0,0,1-1V8ZM12,22H7a1,1,0,0,1,0-2h5a1,1,0,0,1,0,2Zm6-4H7a1,1,0,0,1,0-2H18a1,1,0,0,1,0,2Zm0-4H7a1,1,0,0,1,0-2H18a1,1,0,0,1,0,2Z" style="fill:#ef463c"/></svg>