<svg xmlns="http://www.w3.org/2000/svg" viewBox="0 0 24 24"><rect x="0.04" y="0.04" width="24" height="24" style="fill:none"/><path d="M23.93,10.75A10.16,10.16,0,0,1,24,12.5,12.65,12.65,0,0,1,18.34,23s-.15,0-.48-.26c-.86-.79,0-2.74.29-3.49.56-1.36-1.34-2.2-2.58-2.54a21.25,21.25,0,0,0-3.11-.41,1.35,1.35,0,0,1-1.16-.78,11.26,11.26,0,0,1-.81-2.28c-.14-1,.45-1.58,1.46-2l1-1.45.09-.1a4.14,4.14,0,0,1,5.17-1.06h0Z" style="fill:#ef463c"/><path d="M7.12.93l3,2.2A1.17,1.17,0,0,1,10.5,4V5a2.89,2.89,0,0,1-3,2.78h0A1.32,1.32,0,0,0,6.14,9v.28a1.31,1.31,0,0,0,.22.81l.24.35a1.24,1.24,0,0,1-.48,1.8h0a1.48,1.48,0,0,1-1.83-.35L3,10.25a1.56,1.56,0,0,0-1.22-.57H.25A12.22,12.22,0,0,1,7.12.93Z" style="fill:#ef463c"/><path d="M21.74,5c0,.06-.2.18-.2.18a3.63,3.63,0,0,1-3.61.72l-.41-.15a11.74,11.74,0,0,1-1.26-.54A1.72,1.72,0,0,1,15.5,3h0s-2.17-.29-2-1.38L13.76.23,13.81,0A11.67,11.67,0,0,1,21.74,5Z" style="fill:#ef463c"/><path d="M.06,13.92l.71-.16c1.12-.17,1.41-.87,1.92.27l.52,1.16a5,5,0,0,0,3.41,1.26l2.83-.07c.8.07,1.08,1,1.06,1.39,0,.92,0,2.44-1.81,3.12-.32.12-1.26.53-1.26.53-.61.26-1,.8-.65,1.42.16.26,1,.86.82,1.2h0A12.34,12.34,0,0,1,.06,13.92Z" style="fill:#ef463c"/></svg>