<svg width="23" height="23" viewBox="0 0 23 23" fill="none" xmlns="http://www.w3.org/2000/svg">
<path fill-rule="evenodd" clip-rule="evenodd" d="M12.3276 9.1253L22.1464 18.0959C23.2821 19.2172 23.2821 21.0286 22.1608 22.1499C21.0395 23.2713 19.2137 23.2713 18.0924 22.1499L9.1074 12.3168C7.15227 13.2081 4.85211 13.0787 3.01198 11.9142L7.48291 7.44331C8.31672 6.6095 8.31672 5.24379 7.48291 4.40998L4.50709 1.43415C4.11893 1.046 4.29145 0.341577 4.83773 0.212193C7.26727 -0.42035 9.98433 0.355953 11.6519 2.61298C13.0464 4.48186 13.2764 7.02641 12.3276 9.1253ZM0.223044 4.79804C0.366804 4.25175 1.05685 4.07924 1.445 4.46739L4.93837 7.96075L1.87628 11.0228C0.179916 9.34085 -0.351996 6.95443 0.223044 4.79804Z" fill="#FA4338"/>
</svg>
