<svg xmlns="http://www.w3.org/2000/svg" viewBox="0 0 24 24"><path d="M5.73,5.11.31,6.87A.5.5,0,0,0,0,7.34V23.5a.5.5,0,0,0,.5.5h5a.5.5,0,0,0,.5-.5V5.3A.2.2,0,0,0,5.73,5.11ZM4,21.67a.33.33,0,0,1-.33.33H2.33A.33.33,0,0,1,2,21.67V20.33A.33.33,0,0,1,2.33,20H3.67a.33.33,0,0,1,.33.33Zm0-4a.33.33,0,0,1-.33.33H2.33A.33.33,0,0,1,2,17.67V16.33A.33.33,0,0,1,2.33,16H3.67a.33.33,0,0,1,.33.33Zm0-4a.33.33,0,0,1-.33.33H2.33A.33.33,0,0,1,2,13.67V12.33A.33.33,0,0,1,2.33,12H3.67a.33.33,0,0,1,.33.33Zm0-4a.33.33,0,0,1-.33.33H2.33A.33.33,0,0,1,2,9.67V8.33A.33.33,0,0,1,2.33,8H3.67A.33.33,0,0,1,4,8.33Z" style="fill:#ef463c"/><path d="M23.92,11.81,21.18,5.43a.19.19,0,0,0-.36,0l-2.74,6.38a1.1,1.1,0,0,0-.08.4V23.5a.5.5,0,0,0,.5.5h5a.5.5,0,0,0,.5-.5V12.21A1.1,1.1,0,0,0,23.92,11.81ZM22,21.67a.33.33,0,0,1-.33.33H20.33a.33.33,0,0,1-.33-.33V20.33a.33.33,0,0,1,.33-.33h1.34a.33.33,0,0,1,.33.33Zm0-4a.33.33,0,0,1-.33.33H20.33a.33.33,0,0,1-.33-.33V16.33a.33.33,0,0,1,.33-.33h1.34a.33.33,0,0,1,.33.33Zm0-4a.33.33,0,0,1-.33.33H20.33a.33.33,0,0,1-.33-.33V12.33a.33.33,0,0,1,.33-.33h1.34a.33.33,0,0,1,.33.33Z" style="fill:#ef463c"/><path d="M16.5,2h-9a.5.5,0,0,0-.5.5v21a.5.5,0,0,0,.5.5h9a.5.5,0,0,0,.5-.5V2.5A.5.5,0,0,0,16.5,2ZM11,21.67a.33.33,0,0,1-.33.33H9.33A.33.33,0,0,1,9,21.67V20.33A.33.33,0,0,1,9.33,20h1.34a.33.33,0,0,1,.33.33Zm0-4a.33.33,0,0,1-.33.33H9.33A.33.33,0,0,1,9,17.67V16.33A.33.33,0,0,1,9.33,16h1.34a.33.33,0,0,1,.33.33Zm0-4a.33.33,0,0,1-.33.33H9.33A.33.33,0,0,1,9,13.67V12.33A.33.33,0,0,1,9.33,12h1.34a.33.33,0,0,1,.33.33Zm0-4a.33.33,0,0,1-.33.33H9.33A.33.33,0,0,1,9,9.67V8.33A.33.33,0,0,1,9.33,8h1.34a.33.33,0,0,1,.33.33Zm0-4a.33.33,0,0,1-.33.33H9.33A.33.33,0,0,1,9,5.67V4.33A.33.33,0,0,1,9.33,4h1.34a.33.33,0,0,1,.33.33Zm4,16a.33.33,0,0,1-.33.33H13.33a.33.33,0,0,1-.33-.33V20.33a.33.33,0,0,1,.33-.33h1.34a.33.33,0,0,1,.33.33Zm0-4a.33.33,0,0,1-.33.33H13.33a.33.33,0,0,1-.33-.33V16.33a.33.33,0,0,1,.33-.33h1.34a.33.33,0,0,1,.33.33Zm0-4a.33.33,0,0,1-.33.33H13.33a.33.33,0,0,1-.33-.33V12.33a.33.33,0,0,1,.33-.33h1.34a.33.33,0,0,1,.33.33Zm0-4a.33.33,0,0,1-.33.33H13.33A.33.33,0,0,1,13,9.67V8.33A.33.33,0,0,1,13.33,8h1.34a.33.33,0,0,1,.33.33Zm0-4a.33.33,0,0,1-.33.33H13.33A.33.33,0,0,1,13,5.67V4.33A.33.33,0,0,1,13.33,4h1.34a.33.33,0,0,1,.33.33Z" style="fill:#ef463c"/></svg>