<svg xmlns="http://www.w3.org/2000/svg" viewBox="0 0 24 24"><rect x="0.04" y="0.04" width="24" height="24" style="fill:none"/><path d="M7,10H17a1,1,0,0,0,0-2H7a1,1,0,0,0,0,2Z" style="fill:#ef463c"/><path d="M9.51,12H5a1.06,1.06,0,0,1-1.06-.94l-.66-6A2.36,2.36,0,0,0,1,3L0,3l.78,9.39A2.87,2.87,0,0,0,3.64,15H5v5H3a1,1,0,0,0,0,2H9a1,1,0,0,0,0-2H7V15H9.51a1.49,1.49,0,0,0,0-3Z" style="fill:#ef463c"/><path d="M23.05,3a2.36,2.36,0,0,0-2.27,2.09l-.67,6a1.05,1.05,0,0,1-1.05.94H14.49a1.49,1.49,0,0,0,0,3H17v5H15a1,1,0,0,0,0,2h6a1,1,0,0,0,0-2H19V15h1.36a2.86,2.86,0,0,0,2.86-2.61L24,3Z" style="fill:#ef463c"/></svg>