<svg xmlns="http://www.w3.org/2000/svg" viewBox="0 0 24 24"><rect x="0.04" y="0.04" width="24" height="24" style="fill:none"/><path d="M11.09,4.29a2.33,2.33,0,0,1,1.85,0L21,8V4.12a.69.69,0,0,0-.43-.64L12.26.11a.67.67,0,0,0-.52,0L3.43,3.48A.69.69,0,0,0,3,4.12v3.4Z" style="fill:#ef463c;fill-rule:evenodd"/><path d="M12.11,6.15a.38.38,0,0,0-.28,0L3,9.68v6.61a3.43,3.43,0,0,0,1.65,2.89l7.09,4.65a.49.49,0,0,0,.52,0l7.09-4.65A3.43,3.43,0,0,0,21,16.29v-6.1Zm3.72,6.4-4,6a1,1,0,0,1-.73.45H11a1,1,0,0,1-.71-.29l-2-2a1,1,0,0,1,1.42-1.42l1.13,1.14,3.33-5a1,1,0,0,1,1.66,1.1Z" style="fill:#ef463c;fill-rule:evenodd"/></svg>